<svg width="24" height="23" viewBox="0 0 24 23" fill="none" xmlns="http://www.w3.org/2000/svg">
<path d="M6.01285 16.9806H18.0128C19.1435 16.9286 19.7859 16.2525 19.9657 15.0044C19.9657 14.5623 20.3255 14.1982 20.7623 14.1982H24V20.9852C24 22.0253 23.1777 22.8574 22.1499 22.8574H1.85011C0.82227 22.8574 0 22.0253 0 20.9852V14.1982H3.23769C3.67452 14.1982 4.03426 14.5623 4.03426 15.0044C4.03426 16.0705 4.75375 16.9806 5.98715 16.9806H6.01285Z" fill="white"/>
<path d="M22.1499 0H1.85011C0.82227 0 0 0.832118 0 1.87226V13.0278H3.23769C4.31692 13.0278 5.19058 13.9119 5.19058 15.0041C5.19058 16.0962 5.55032 15.8102 5.98715 15.8102H17.9872C18.424 15.8102 18.7837 15.4461 18.7837 15.0041C18.7837 13.9119 19.6574 13.0278 20.7366 13.0278H23.9743V1.87226C23.9743 0.832118 23.152 0 22.1242 0H22.1499ZM19.9657 9.51731C19.9657 9.82935 19.7088 10.0894 19.4004 10.0894H4.62527C4.31692 10.0894 4.05996 9.82935 4.05996 9.51731V9.38729C4.05996 9.07525 4.31692 8.81522 4.62527 8.81522H19.4004C19.7088 8.81522 19.9657 9.07525 19.9657 9.38729V9.51731ZM19.9657 5.7728C19.9657 6.08484 19.7088 6.34488 19.4004 6.34488H4.62527C4.31692 6.34488 4.05996 6.08484 4.05996 5.7728V5.64278C4.05996 5.33074 4.31692 5.0707 4.62527 5.0707H19.4004C19.7088 5.0707 19.9657 5.33074 19.9657 5.64278V5.7728Z" fill="white"/>
</svg>
