<svg width="30" height="30" viewBox="0 0 30 30" fill="none" xmlns="http://www.w3.org/2000/svg">
<path d="M8.53956 4.37386C10.9902 -1.54223 19.4473 -1.42989 21.7398 4.54769C22.4268 6.35018 23.8597 7.78487 25.645 8.47347C31.5342 10.734 31.4241 19.1453 25.4761 21.2508C23.6614 21.8889 22.2029 23.2913 21.4644 25.0721C19.0029 31.0137 10.4975 30.8629 8.24171 24.8455C7.54734 23.0717 6.12578 21.6549 4.35499 20.9735C-1.53414 18.7129 -1.42386 10.3018 4.52394 8.19613C6.33883 7.55798 7.79721 6.15491 8.53565 4.37386H8.53956ZM9.42726 18.4442H11.8267V11.0028H9.42726V18.4442ZM13.7114 11.0028V18.4442H16.106V16.3094H18.5903C20.5115 16.3093 21.7788 15.3973 21.7788 13.6561C21.7788 11.9148 20.5115 11.0029 18.5903 11.0028H13.7114ZM18.4653 12.953C19.0897 12.9531 19.4165 13.2343 19.4165 13.6561C19.4165 14.0778 19.0859 14.3591 18.4653 14.3592V14.3621H16.1099V12.953H18.4653Z" fill="white"/>
</svg>
