<svg width="24" height="24" viewBox="0 0 24 24" fill="none" xmlns="http://www.w3.org/2000/svg">
<path d="M12.1662 0.00607333C12.8885 0.0664174 13.5201 0.458817 13.9113 1.00119C14.122 1.27229 14.4232 1.48303 14.7541 1.57346C14.7842 1.57346 14.4836 1.48305 14.8147 1.57346C15.1456 1.66386 15.1459 1.78396 15.8381 1.48264C16.5303 1.1814 17.3735 1.21216 18.0656 1.634C18.6973 2.02576 19.0884 2.68839 19.1486 3.41135C19.1787 3.74275 19.3591 4.07458 19.5998 4.31564C19.6299 4.34578 19.3894 4.07475 19.6301 4.34592C19.8709 4.61714 19.7811 4.70766 20.5637 4.79807C21.3461 4.88857 22.068 5.34084 22.4592 6.12424C22.7601 6.78715 22.73 7.51002 22.4592 8.14279C22.3388 8.47421 22.3094 8.83577 22.3996 9.16721C22.3996 9.19734 22.3093 8.92654 22.3996 9.25803C22.4898 9.58934 22.3993 9.71017 22.9709 10.1018C23.5428 10.4935 23.9039 11.1266 23.9641 11.8498L23.9943 11.8195C24.0545 12.6934 23.6332 13.4468 23.0012 13.9289C22.7304 14.1398 22.5202 14.4413 22.4299 14.7727C22.3396 15.1343 22.2188 15.1343 22.5197 15.8274C22.8207 16.5205 22.7909 17.3042 22.3996 17.9973C21.9783 18.7205 21.2858 19.142 20.5334 19.2024C20.1722 19.2325 19.8709 19.4134 19.6301 19.6545C19.3592 19.8955 19.2692 19.8056 19.1789 20.5891C19.0886 21.3725 18.6371 22.0958 17.8547 22.4875C17.1926 22.7888 16.4701 22.7587 15.8381 22.4875C15.5071 22.367 15.1457 22.3366 14.8147 22.427C14.7846 22.427 15.0852 22.3366 14.7541 22.427C14.4233 22.5172 14.3927 22.3366 13.9113 22.9992C13.4298 23.6622 12.6777 24.0546 11.8049 23.9944C11.0825 23.9341 10.4501 23.5417 10.0588 22.9992C9.84812 22.7282 9.54694 22.5173 9.21602 22.427C9.18822 22.4276 9.48599 22.517 9.15645 22.427C8.82539 22.3366 8.82518 22.2165 8.13302 22.5178C7.44076 22.8191 6.59773 22.7883 5.90548 22.3664C5.27362 21.9747 4.88274 21.3121 4.82247 20.5891C4.79237 20.2576 4.61111 19.9259 4.37032 19.6848C4.3408 19.6553 4.58059 19.9255 4.34005 19.6545C4.09955 19.3835 4.1897 19.2927 3.40743 19.2024C2.62488 19.112 1.90222 18.6597 1.51095 17.8762C1.21021 17.2134 1.24018 16.4903 1.51095 15.8576C1.63131 15.5262 1.6617 15.1646 1.57149 14.8332C1.57149 14.8031 1.66178 15.1041 1.57149 14.7727C1.4812 14.4412 1.66139 14.4111 0.999227 13.9289C0.337212 13.4468 -0.0540722 12.6933 0.00606251 11.8195C0.0662526 11.0964 0.457547 10.4633 0.999227 10.0715C1.27011 9.86055 1.4812 9.55924 1.57149 9.22775C1.57148 9.19765 1.4812 9.49868 1.57149 9.16721C1.66178 8.836 1.78157 8.83571 1.48067 8.14279C1.17981 7.44976 1.21078 6.60632 1.63204 5.9133C2.02332 5.28045 2.68507 4.88861 3.40743 4.82834C3.7385 4.7982 4.06997 4.61727 4.31075 4.37619C4.34018 4.34666 4.06988 4.58637 4.34005 4.34592C4.61093 4.10483 4.7019 4.19487 4.7922 3.41135C4.88257 2.62794 5.33396 1.90462 6.11641 1.51291C6.77851 1.21167 7.50103 1.24172 8.13302 1.51291C8.46405 1.6334 8.82542 1.66385 9.15645 1.57346C9.18387 1.57415 8.88672 1.66337 9.21602 1.57346C9.54704 1.48307 9.57751 1.66369 10.0588 1.00119C10.5404 0.33821 11.2934 -0.0541977 12.1662 0.00607333ZM12.0002 7.50021C9.51493 7.50022 7.50021 9.51494 7.5002 12.0002C7.5002 14.4855 9.51492 16.5002 12.0002 16.5002C14.4855 16.5002 16.5002 14.4855 16.5002 12.0002C16.5002 9.51493 14.4855 7.50021 12.0002 7.50021Z" fill="white"/>
</svg>
