<svg width="11" height="11" viewBox="0 0 11 11" fill="none" xmlns="http://www.w3.org/2000/svg">
<path d="M10.0989 4.98729C10.0735 4.68288 9.92129 4.41652 9.6803 4.25163C9.43931 4.08674 9.47736 4.03601 9.43931 3.89649C9.40125 3.75696 9.43931 3.87112 9.43931 3.85843C9.40125 3.71891 9.41394 3.56671 9.46467 3.42718C9.57883 3.16083 9.59151 2.85641 9.46467 2.57737C9.29978 2.24759 8.99537 2.05733 8.66559 2.01928C8.33581 1.98123 8.37387 1.94318 8.2724 1.82903C8.17093 1.71487 8.2724 1.82903 8.25971 1.81634C8.15824 1.71487 8.08214 1.57535 8.06946 1.43583C8.04409 1.13142 7.8792 0.852374 7.61284 0.687485C7.32111 0.509912 6.96597 0.497228 6.67424 0.624066C6.38251 0.750904 6.38251 0.700169 6.24299 0.662117C6.10347 0.624066 6.2303 0.662117 6.21762 0.662117C6.0781 0.624066 5.95126 0.535279 5.86247 0.421125C5.69759 0.192817 5.43123 0.0279274 5.12681 0.00255977C4.75898 -0.0228078 4.44189 0.142082 4.23895 0.421125C4.03601 0.700169 4.02332 0.624066 3.8838 0.662117C3.74428 0.700169 3.87112 0.662117 3.85843 0.662117C3.71891 0.700169 3.56671 0.687485 3.42719 0.63675C3.16083 0.522595 2.85641 0.509912 2.57737 0.63675C2.24759 0.801639 2.05733 1.10605 2.01928 1.43583C1.98123 1.76561 1.94318 1.72756 1.82903 1.82903C1.71487 1.9305 1.82903 1.82903 1.81634 1.84171C1.71487 1.94318 1.57535 2.01928 1.43583 2.03197C1.13142 2.05733 0.852374 2.22222 0.687485 2.48858C0.509912 2.78031 0.497228 3.13546 0.624066 3.42718C0.750904 3.71891 0.700169 3.71891 0.662117 3.85843C0.624066 3.99796 0.662117 3.87112 0.662117 3.8838C0.624066 4.02332 0.535279 4.15016 0.421125 4.23895C0.192817 4.40384 0.0279274 4.6702 0.00255977 4.97461C-0.0228078 5.34244 0.142082 5.65953 0.421125 5.86247C0.700169 6.06541 0.624066 6.0781 0.662117 6.21762C0.700169 6.35714 0.662117 6.2303 0.662117 6.24299C0.700169 6.38251 0.687485 6.53471 0.63675 6.67424C0.522596 6.9406 0.509912 7.24501 0.63675 7.52405C0.801639 7.85383 1.10605 8.04409 1.43583 8.08214C1.76561 8.12019 1.72756 8.15824 1.82903 8.27239C1.9305 8.38655 1.82903 8.2724 1.84171 8.28508C1.94318 8.38655 2.01928 8.52607 2.03197 8.66559C2.05734 8.97 2.22222 9.24905 2.48858 9.41394C2.78031 9.59151 3.13546 9.60419 3.42719 9.47736C3.71891 9.35052 3.71891 9.40125 3.85843 9.4393C3.99796 9.47736 3.87112 9.4393 3.8838 9.4393C4.02332 9.47736 4.15016 9.56614 4.23895 9.6803C4.40384 9.9086 4.6702 10.0735 4.97461 10.0989C5.34244 10.1242 5.65953 9.95934 5.86247 9.6803C6.06542 9.40125 6.0781 9.47736 6.21762 9.4393C6.35714 9.40125 6.2303 9.4393 6.24299 9.4393C6.38251 9.40125 6.53472 9.41394 6.67424 9.46467C6.9406 9.57883 7.24501 9.59151 7.52405 9.46467C7.85383 9.29978 8.04409 8.99537 8.08214 8.66559C8.12019 8.33581 8.15824 8.37387 8.2724 8.27239C8.37387 8.17092 8.5007 8.09482 8.65291 8.08214C8.97 8.05677 9.26173 7.8792 9.43931 7.57479C9.6042 7.28306 9.61688 6.95328 9.49004 6.66155C9.3632 6.36983 9.41394 6.36983 9.45199 6.21762C9.49004 6.0781 9.57883 5.95126 9.69298 5.86247C9.95934 5.65953 10.1369 5.34244 10.1115 4.97461L10.0989 4.98729Z" fill="#111315"/>
<path d="M4.56847 6.83875C4.37821 6.83875 4.18796 6.76264 4.04843 6.62312L2.65322 5.2279C2.50101 5.0757 2.50101 4.83471 2.65322 4.69518C2.80542 4.54298 3.04641 4.54298 3.18594 4.69518L4.55579 6.06503L7.02913 3.59169C7.18133 3.43949 7.42232 3.43949 7.56185 3.59169C7.71405 3.7439 7.71405 3.98489 7.56185 4.12441L5.06314 6.62312C4.92362 6.76264 4.74604 6.83875 4.5431 6.83875H4.56847Z" fill="white"/>
</svg>
